<mxfile host="app.diagrams.net" modified="2024-03-03T02:24:04.225Z" agent="Mozilla/5.0 (Windows NT 10.0; Win64; x64) AppleWebKit/537.36 (KHTML, like Gecko) Chrome/122.0.0.0 Safari/537.36" etag="Zrj26R6F1NlNbbL3LWSn" version="24.0.0" type="device">
  <diagram id="prtHgNgQTEPvFCAcTncT" name="Page-1">
    <mxGraphModel dx="2048" dy="759" grid="1" gridSize="10" guides="1" tooltips="1" connect="1" arrows="1" fold="1" page="1" pageScale="1" pageWidth="827" pageHeight="1169" math="0" shadow="0">
      <root>
        <mxCell id="0" />
        <mxCell id="1" parent="0" />
        <mxCell id="dNxyNK7c78bLwvsdeMH5-19" value="Humanizer Plugin" style="swimlane;html=1;childLayout=stackLayout;resizeParent=1;resizeParentMax=0;horizontal=0;startSize=20;horizontalStack=0;" parent="1" vertex="1">
          <mxGeometry x="-818" y="10" width="816" height="1130" as="geometry" />
        </mxCell>
        <mxCell id="E1nOFEmdzeE2VjTm07h2-82" value="Plugin Load" style="swimlane;horizontal=0;whiteSpace=wrap;html=1;startSize=20;" parent="dNxyNK7c78bLwvsdeMH5-19" vertex="1">
          <mxGeometry x="20" width="796" height="160" as="geometry" />
        </mxCell>
        <mxCell id="E1nOFEmdzeE2VjTm07h2-85" value="HumanizerConfig" style="swimlane;whiteSpace=wrap;html=1;" parent="E1nOFEmdzeE2VjTm07h2-82" vertex="1">
          <mxGeometry x="40" y="20" width="200" height="100" as="geometry" />
        </mxCell>
        <mxCell id="E1nOFEmdzeE2VjTm07h2-87" value="&lt;ul&gt;&lt;li&gt;Asset Import Paths&lt;/li&gt;&lt;li&gt;Slot Definitions&lt;/li&gt;&lt;li&gt;Baked Human Export Path&lt;/li&gt;&lt;li&gt;Humanizer Node Defaults&lt;/li&gt;&lt;/ul&gt;" style="text;html=1;align=left;verticalAlign=middle;resizable=0;points=[];autosize=1;strokeColor=none;fillColor=none;" parent="E1nOFEmdzeE2VjTm07h2-85" vertex="1">
          <mxGeometry x="-10" y="10" width="210" height="100" as="geometry" />
        </mxCell>
        <mxCell id="E1nOFEmdzeE2VjTm07h2-86" value="HumanizerRegistry" style="swimlane;whiteSpace=wrap;html=1;" parent="E1nOFEmdzeE2VjTm07h2-82" vertex="1">
          <mxGeometry x="580" y="20" width="180" height="120" as="geometry" />
        </mxCell>
        <mxCell id="E1nOFEmdzeE2VjTm07h2-90" value="Scan &amp;amp; Load Assets" style="whiteSpace=wrap;html=1;shape=cloud;perimeter=ellipsePerimeter;" parent="E1nOFEmdzeE2VjTm07h2-82" vertex="1">
          <mxGeometry x="308" y="40" width="174" height="100" as="geometry" />
        </mxCell>
        <mxCell id="E1nOFEmdzeE2VjTm07h2-93" style="edgeStyle=orthogonalEdgeStyle;rounded=0;orthogonalLoop=1;jettySize=auto;html=1;entryX=0.07;entryY=0.4;entryDx=0;entryDy=0;entryPerimeter=0;" parent="E1nOFEmdzeE2VjTm07h2-82" source="E1nOFEmdzeE2VjTm07h2-87" target="E1nOFEmdzeE2VjTm07h2-90" edge="1">
          <mxGeometry relative="1" as="geometry" />
        </mxCell>
        <mxCell id="E1nOFEmdzeE2VjTm07h2-96" value="" style="edgeStyle=orthogonalEdgeStyle;rounded=0;orthogonalLoop=1;jettySize=auto;html=1;exitX=0.918;exitY=0.47;exitDx=0;exitDy=0;exitPerimeter=0;" parent="E1nOFEmdzeE2VjTm07h2-82" source="E1nOFEmdzeE2VjTm07h2-90" target="E1nOFEmdzeE2VjTm07h2-88" edge="1">
          <mxGeometry relative="1" as="geometry">
            <mxPoint x="520" y="287" as="sourcePoint" />
            <mxPoint x="630" y="290" as="targetPoint" />
          </mxGeometry>
        </mxCell>
        <mxCell id="E1nOFEmdzeE2VjTm07h2-88" value="&lt;ul&gt;&lt;li&gt;Rigs&lt;/li&gt;&lt;li&gt;Skins&lt;/li&gt;&lt;li&gt;Body Part Resources&lt;/li&gt;&lt;li&gt;Clothes Resources&lt;/li&gt;&lt;li&gt;Overlays&lt;/li&gt;&lt;/ul&gt;" style="text;html=1;align=left;verticalAlign=middle;resizable=0;points=[];autosize=1;strokeColor=none;fillColor=none;" parent="E1nOFEmdzeE2VjTm07h2-82" vertex="1">
          <mxGeometry x="580" y="30" width="180" height="110" as="geometry" />
        </mxCell>
        <mxCell id="dNxyNK7c78bLwvsdeMH5-20" value="Preprocessing" style="swimlane;html=1;startSize=20;horizontal=0;" parent="dNxyNK7c78bLwvsdeMH5-19" vertex="1">
          <mxGeometry x="20" y="160" width="796" height="260" as="geometry">
            <mxRectangle x="20" width="850" height="30" as="alternateBounds" />
          </mxGeometry>
        </mxCell>
        <mxCell id="E1nOFEmdzeE2VjTm07h2-50" value="Shapekeys" style="text;html=1;align=center;verticalAlign=middle;resizable=0;points=[];autosize=1;strokeColor=none;fillColor=none;" parent="dNxyNK7c78bLwvsdeMH5-20" vertex="1">
          <mxGeometry x="90" y="140" width="80" height="30" as="geometry" />
        </mxCell>
        <mxCell id="E1nOFEmdzeE2VjTm07h2-54" value="" style="swimlane;startSize=0;" parent="dNxyNK7c78bLwvsdeMH5-20" vertex="1">
          <mxGeometry x="310" y="10" width="470" height="240" as="geometry">
            <mxRectangle x="334" y="10" width="50" height="40" as="alternateBounds" />
          </mxGeometry>
        </mxCell>
        <mxCell id="E1nOFEmdzeE2VjTm07h2-55" value="Rigs" style="text;html=1;align=center;verticalAlign=middle;resizable=0;points=[];autosize=1;strokeColor=none;fillColor=none;" parent="E1nOFEmdzeE2VjTm07h2-54" vertex="1">
          <mxGeometry x="286" y="2.5" width="50" height="30" as="geometry" />
        </mxCell>
        <mxCell id="Voa3J6IPuXhRRujfUPY2-4" style="edgeStyle=orthogonalEdgeStyle;rounded=0;orthogonalLoop=1;jettySize=auto;html=1;entryX=0.5;entryY=0;entryDx=0;entryDy=0;" edge="1" parent="E1nOFEmdzeE2VjTm07h2-54" source="E1nOFEmdzeE2VjTm07h2-42" target="E1nOFEmdzeE2VjTm07h2-56">
          <mxGeometry relative="1" as="geometry">
            <Array as="points">
              <mxPoint x="400" y="82" />
            </Array>
          </mxGeometry>
        </mxCell>
        <mxCell id="Voa3J6IPuXhRRujfUPY2-5" style="edgeStyle=orthogonalEdgeStyle;rounded=0;orthogonalLoop=1;jettySize=auto;html=1;entryX=0.5;entryY=0;entryDx=0;entryDy=0;" edge="1" parent="E1nOFEmdzeE2VjTm07h2-54" source="E1nOFEmdzeE2VjTm07h2-42" target="E1nOFEmdzeE2VjTm07h2-57">
          <mxGeometry relative="1" as="geometry">
            <Array as="points">
              <mxPoint x="330" y="150" />
              <mxPoint x="400" y="150" />
            </Array>
          </mxGeometry>
        </mxCell>
        <mxCell id="E1nOFEmdzeE2VjTm07h2-42" value="SkeletonConfig" style="rounded=1;whiteSpace=wrap;html=1;" parent="E1nOFEmdzeE2VjTm07h2-54" vertex="1">
          <mxGeometry x="240" y="67.5" width="100" height="30" as="geometry" />
        </mxCell>
        <mxCell id="E1nOFEmdzeE2VjTm07h2-61" style="edgeStyle=orthogonalEdgeStyle;rounded=0;orthogonalLoop=1;jettySize=auto;html=1;entryX=0;entryY=0.25;entryDx=0;entryDy=0;" parent="E1nOFEmdzeE2VjTm07h2-54" source="E1nOFEmdzeE2VjTm07h2-40" target="E1nOFEmdzeE2VjTm07h2-42" edge="1">
          <mxGeometry relative="1" as="geometry" />
        </mxCell>
        <mxCell id="E1nOFEmdzeE2VjTm07h2-40" value="rigged base mesh res" style="shape=document;whiteSpace=wrap;html=1;boundedLbl=1;" parent="E1nOFEmdzeE2VjTm07h2-54" vertex="1">
          <mxGeometry x="20" y="80" width="140" height="40" as="geometry" />
        </mxCell>
        <mxCell id="E1nOFEmdzeE2VjTm07h2-41" value="skeleton packedscene&amp;nbsp;&lt;span style=&quot;background-color: initial;&quot;&gt;and/or&amp;nbsp;&lt;/span&gt;&lt;div&gt;&lt;span style=&quot;background-color: initial;&quot;&gt;general skeleton packedscene&lt;/span&gt;&lt;/div&gt;" style="shape=document;whiteSpace=wrap;html=1;boundedLbl=1;" parent="E1nOFEmdzeE2VjTm07h2-54" vertex="1">
          <mxGeometry x="20" y="130" width="180" height="50" as="geometry" />
        </mxCell>
        <mxCell id="E1nOFEmdzeE2VjTm07h2-63" style="edgeStyle=orthogonalEdgeStyle;rounded=0;orthogonalLoop=1;jettySize=auto;html=1;entryX=0.5;entryY=1;entryDx=0;entryDy=0;" parent="E1nOFEmdzeE2VjTm07h2-54" source="E1nOFEmdzeE2VjTm07h2-38" target="E1nOFEmdzeE2VjTm07h2-42" edge="1">
          <mxGeometry relative="1" as="geometry" />
        </mxCell>
        <mxCell id="E1nOFEmdzeE2VjTm07h2-38" value="makehuman&amp;nbsp;&lt;span style=&quot;background-color: initial;&quot;&gt;rig json file&lt;/span&gt;" style="shape=document;whiteSpace=wrap;html=1;boundedLbl=1;" parent="E1nOFEmdzeE2VjTm07h2-54" vertex="1">
          <mxGeometry x="70" y="190" width="146" height="36.25" as="geometry" />
        </mxCell>
        <mxCell id="E1nOFEmdzeE2VjTm07h2-56" value="skeleton_config.json" style="rounded=0;whiteSpace=wrap;html=1;" parent="E1nOFEmdzeE2VjTm07h2-54" vertex="1">
          <mxGeometry x="340" y="110" width="120" height="30" as="geometry" />
        </mxCell>
        <mxCell id="E1nOFEmdzeE2VjTm07h2-57" value="bone_weights.json" style="rounded=0;whiteSpace=wrap;html=1;" parent="E1nOFEmdzeE2VjTm07h2-54" vertex="1">
          <mxGeometry x="340" y="170" width="120" height="30" as="geometry" />
        </mxCell>
        <mxCell id="E1nOFEmdzeE2VjTm07h2-62" style="edgeStyle=orthogonalEdgeStyle;rounded=0;orthogonalLoop=1;jettySize=auto;html=1;entryX=0.157;entryY=0.983;entryDx=0;entryDy=0;entryPerimeter=0;" parent="E1nOFEmdzeE2VjTm07h2-54" source="E1nOFEmdzeE2VjTm07h2-41" target="E1nOFEmdzeE2VjTm07h2-42" edge="1">
          <mxGeometry relative="1" as="geometry">
            <Array as="points">
              <mxPoint x="256" y="155" />
            </Array>
          </mxGeometry>
        </mxCell>
        <mxCell id="E1nOFEmdzeE2VjTm07h2-39" value="basemesh_vertex_groups.json" style="shape=document;whiteSpace=wrap;html=1;boundedLbl=1;" parent="E1nOFEmdzeE2VjTm07h2-54" vertex="1">
          <mxGeometry x="20" y="22.5" width="180" height="45" as="geometry" />
        </mxCell>
        <mxCell id="E1nOFEmdzeE2VjTm07h2-60" style="edgeStyle=orthogonalEdgeStyle;rounded=0;orthogonalLoop=1;jettySize=auto;html=1;entryX=0.5;entryY=0;entryDx=0;entryDy=0;" parent="E1nOFEmdzeE2VjTm07h2-54" source="E1nOFEmdzeE2VjTm07h2-39" target="E1nOFEmdzeE2VjTm07h2-42" edge="1">
          <mxGeometry relative="1" as="geometry" />
        </mxCell>
        <mxCell id="E1nOFEmdzeE2VjTm07h2-52" value="" style="swimlane;startSize=0;" parent="dNxyNK7c78bLwvsdeMH5-20" vertex="1">
          <mxGeometry x="40" y="142.5" width="240" height="107.5" as="geometry">
            <mxRectangle x="-120" y="-127.5" width="50" height="40" as="alternateBounds" />
          </mxGeometry>
        </mxCell>
        <mxCell id="E1nOFEmdzeE2VjTm07h2-3" value="shapekey_data.dat" style="rounded=0;whiteSpace=wrap;html=1;" parent="E1nOFEmdzeE2VjTm07h2-52" vertex="1">
          <mxGeometry x="110" y="38.13" width="110" height="31.25" as="geometry" />
        </mxCell>
        <mxCell id="E1nOFEmdzeE2VjTm07h2-14" value=".target&lt;div&gt;files&lt;/div&gt;" style="rounded=0;whiteSpace=wrap;html=1;shape=document;boundedLbl=1;" parent="E1nOFEmdzeE2VjTm07h2-52" vertex="1">
          <mxGeometry x="15" y="30" width="60" height="47.5" as="geometry" />
        </mxCell>
        <mxCell id="E1nOFEmdzeE2VjTm07h2-16" style="edgeStyle=orthogonalEdgeStyle;rounded=0;orthogonalLoop=1;jettySize=auto;html=1;entryX=0;entryY=0.5;entryDx=0;entryDy=0;" parent="E1nOFEmdzeE2VjTm07h2-52" source="E1nOFEmdzeE2VjTm07h2-14" target="E1nOFEmdzeE2VjTm07h2-3" edge="1">
          <mxGeometry relative="1" as="geometry" />
        </mxCell>
        <mxCell id="E1nOFEmdzeE2VjTm07h2-53" value="" style="swimlane;startSize=0;" parent="dNxyNK7c78bLwvsdeMH5-20" vertex="1">
          <mxGeometry x="35" y="10" width="250" height="115" as="geometry">
            <mxRectangle x="30" y="10" width="50" height="40" as="alternateBounds" />
          </mxGeometry>
        </mxCell>
        <mxCell id="E1nOFEmdzeE2VjTm07h2-17" value="Meshes" style="text;html=1;align=center;verticalAlign=middle;resizable=0;points=[];autosize=1;strokeColor=none;fillColor=none;" parent="E1nOFEmdzeE2VjTm07h2-53" vertex="1">
          <mxGeometry x="60" y="5" width="70" height="30" as="geometry" />
        </mxCell>
        <mxCell id="E1nOFEmdzeE2VjTm07h2-11" value="base.obj" style="rounded=0;whiteSpace=wrap;html=1;glass=0;shape=document;boundedLbl=1;" parent="E1nOFEmdzeE2VjTm07h2-53" vertex="1">
          <mxGeometry x="10" y="35" width="70" height="45" as="geometry" />
        </mxCell>
        <mxCell id="E1nOFEmdzeE2VjTm07h2-32" value="base_helpers.res" style="rounded=0;whiteSpace=wrap;html=1;fontFamily=Helvetica;fontSize=12;fontColor=#000000;align=center;" parent="E1nOFEmdzeE2VjTm07h2-53" vertex="1">
          <mxGeometry x="130" y="61.879999999999995" width="110" height="32.5" as="geometry" />
        </mxCell>
        <mxCell id="dNxyNK7c78bLwvsdeMH5-24" value="&lt;div&gt;&lt;span style=&quot;background-color: initial;&quot;&gt;base_human.res&lt;/span&gt;&lt;br&gt;&lt;/div&gt;" style="rounded=0;whiteSpace=wrap;html=1;fontFamily=Helvetica;fontSize=12;fontColor=#000000;align=center;" parent="E1nOFEmdzeE2VjTm07h2-53" vertex="1">
          <mxGeometry x="130" y="20.63" width="110" height="32.5" as="geometry" />
        </mxCell>
        <mxCell id="E1nOFEmdzeE2VjTm07h2-33" style="edgeStyle=orthogonalEdgeStyle;rounded=0;orthogonalLoop=1;jettySize=auto;html=1;" parent="E1nOFEmdzeE2VjTm07h2-53" source="E1nOFEmdzeE2VjTm07h2-11" target="E1nOFEmdzeE2VjTm07h2-32" edge="1">
          <mxGeometry relative="1" as="geometry" />
        </mxCell>
        <mxCell id="E1nOFEmdzeE2VjTm07h2-13" style="edgeStyle=orthogonalEdgeStyle;rounded=0;orthogonalLoop=1;jettySize=auto;html=1;exitX=1;exitY=0.5;exitDx=0;exitDy=0;entryX=0;entryY=0.5;entryDx=0;entryDy=0;" parent="E1nOFEmdzeE2VjTm07h2-53" source="E1nOFEmdzeE2VjTm07h2-11" target="dNxyNK7c78bLwvsdeMH5-24" edge="1">
          <mxGeometry relative="1" as="geometry" />
        </mxCell>
        <mxCell id="dNxyNK7c78bLwvsdeMH5-21" value="BodyParts /&amp;nbsp;&lt;span style=&quot;background-color: initial;&quot;&gt;Clothes&lt;/span&gt;" style="swimlane;html=1;startSize=20;horizontal=0;" parent="dNxyNK7c78bLwvsdeMH5-19" vertex="1">
          <mxGeometry x="20" y="420" width="796" height="210" as="geometry">
            <mxRectangle x="20" y="30" width="850" height="30" as="alternateBounds" />
          </mxGeometry>
        </mxCell>
        <mxCell id="Voa3J6IPuXhRRujfUPY2-1" style="edgeStyle=orthogonalEdgeStyle;rounded=0;orthogonalLoop=1;jettySize=auto;html=1;" edge="1" parent="dNxyNK7c78bLwvsdeMH5-21" source="E1nOFEmdzeE2VjTm07h2-9">
          <mxGeometry relative="1" as="geometry">
            <mxPoint x="470" y="71.25" as="targetPoint" />
          </mxGeometry>
        </mxCell>
        <mxCell id="E1nOFEmdzeE2VjTm07h2-9" value="AssetImporter" style="rounded=1;whiteSpace=wrap;html=1;" parent="dNxyNK7c78bLwvsdeMH5-21" vertex="1">
          <mxGeometry x="337" y="51.25" width="100" height="40" as="geometry" />
        </mxCell>
        <mxCell id="E1nOFEmdzeE2VjTm07h2-28" style="edgeStyle=orthogonalEdgeStyle;rounded=0;orthogonalLoop=1;jettySize=auto;html=1;entryX=0;entryY=0.5;entryDx=0;entryDy=0;" parent="dNxyNK7c78bLwvsdeMH5-21" source="E1nOFEmdzeE2VjTm07h2-18" target="E1nOFEmdzeE2VjTm07h2-24" edge="1">
          <mxGeometry relative="1" as="geometry" />
        </mxCell>
        <mxCell id="E1nOFEmdzeE2VjTm07h2-18" value=".mhclo file" style="rounded=0;whiteSpace=wrap;html=1;shape=document;boundedLbl=1;" parent="dNxyNK7c78bLwvsdeMH5-21" vertex="1">
          <mxGeometry x="45" y="31.25" width="80" height="30" as="geometry" />
        </mxCell>
        <mxCell id="E1nOFEmdzeE2VjTm07h2-29" style="edgeStyle=orthogonalEdgeStyle;rounded=0;orthogonalLoop=1;jettySize=auto;html=1;" parent="dNxyNK7c78bLwvsdeMH5-21" source="E1nOFEmdzeE2VjTm07h2-19" edge="1">
          <mxGeometry relative="1" as="geometry">
            <mxPoint x="165" y="103.75" as="targetPoint" />
          </mxGeometry>
        </mxCell>
        <mxCell id="E1nOFEmdzeE2VjTm07h2-19" value=".obj file" style="rounded=0;whiteSpace=wrap;html=1;shape=document;boundedLbl=1;" parent="dNxyNK7c78bLwvsdeMH5-21" vertex="1">
          <mxGeometry x="45" y="91.25" width="80" height="25" as="geometry" />
        </mxCell>
        <mxCell id="E1nOFEmdzeE2VjTm07h2-37" style="edgeStyle=orthogonalEdgeStyle;rounded=0;orthogonalLoop=1;jettySize=auto;html=1;entryX=0;entryY=0.75;entryDx=0;entryDy=0;" parent="dNxyNK7c78bLwvsdeMH5-21" source="E1nOFEmdzeE2VjTm07h2-20" target="E1nOFEmdzeE2VjTm07h2-9" edge="1">
          <mxGeometry relative="1" as="geometry">
            <Array as="points">
              <mxPoint x="315" y="156.25" />
              <mxPoint x="315" y="81.25" />
            </Array>
          </mxGeometry>
        </mxCell>
        <mxCell id="E1nOFEmdzeE2VjTm07h2-20" value="textures" style="rounded=0;whiteSpace=wrap;html=1;shape=document;boundedLbl=1;" parent="dNxyNK7c78bLwvsdeMH5-21" vertex="1">
          <mxGeometry x="45" y="141.25" width="80" height="30" as="geometry" />
        </mxCell>
        <mxCell id="E1nOFEmdzeE2VjTm07h2-24" value="MHCLO Resource" style="swimlane;whiteSpace=wrap;html=1;" parent="dNxyNK7c78bLwvsdeMH5-21" vertex="1">
          <mxGeometry x="165" y="28.75" width="140" height="112.5" as="geometry" />
        </mxCell>
        <mxCell id="E1nOFEmdzeE2VjTm07h2-26" value="&lt;ul&gt;&lt;li&gt;mh2gd_index&lt;/li&gt;&lt;li style=&quot;&quot;&gt;vertex_data&lt;/li&gt;&lt;li style=&quot;&quot;&gt;delete_vertices&lt;/li&gt;&lt;li style=&quot;&quot;&gt;scale_config&lt;/li&gt;&lt;/ul&gt;" style="text;html=1;align=left;verticalAlign=middle;resizable=0;points=[];autosize=1;strokeColor=none;fillColor=none;" parent="E1nOFEmdzeE2VjTm07h2-24" vertex="1">
          <mxGeometry y="12.5" width="140" height="100" as="geometry" />
        </mxCell>
        <mxCell id="E1nOFEmdzeE2VjTm07h2-36" style="edgeStyle=orthogonalEdgeStyle;rounded=0;orthogonalLoop=1;jettySize=auto;html=1;entryX=0;entryY=0.25;entryDx=0;entryDy=0;" parent="dNxyNK7c78bLwvsdeMH5-21" source="E1nOFEmdzeE2VjTm07h2-26" target="E1nOFEmdzeE2VjTm07h2-9" edge="1">
          <mxGeometry relative="1" as="geometry">
            <Array as="points">
              <mxPoint x="325" y="61.25" />
              <mxPoint x="325" y="61.25" />
            </Array>
          </mxGeometry>
        </mxCell>
        <mxCell id="E1nOFEmdzeE2VjTm07h2-105" value="HumanAssetResource (Clothes/BodyParts)" style="swimlane;whiteSpace=wrap;html=1;" parent="dNxyNK7c78bLwvsdeMH5-21" vertex="1">
          <mxGeometry x="470" y="13.75" width="310" height="180" as="geometry" />
        </mxCell>
        <mxCell id="E1nOFEmdzeE2VjTm07h2-106" value="&lt;div style=&quot;&quot;&gt;&lt;span style=&quot;background-color: initial;&quot;&gt;Sent to registry.&amp;nbsp; Containes refs to:&lt;/span&gt;&lt;/div&gt;&lt;div&gt;&lt;ul&gt;&lt;li&gt;folder path&lt;/li&gt;&lt;li&gt;mesh.res path&lt;/li&gt;&lt;li&gt;material.tres path&lt;/li&gt;&lt;li&gt;scene.tscn path&lt;/li&gt;&lt;li&gt;mhclo resource path&lt;/li&gt;&lt;/ul&gt;&lt;/div&gt;" style="text;html=1;align=left;verticalAlign=middle;resizable=0;points=[];autosize=1;strokeColor=none;fillColor=none;" parent="E1nOFEmdzeE2VjTm07h2-105" vertex="1">
          <mxGeometry x="50" y="41.25" width="210" height="120" as="geometry" />
        </mxCell>
        <mxCell id="E1nOFEmdzeE2VjTm07h2-126" value="Custom Scene" style="text;html=1;align=center;verticalAlign=middle;resizable=0;points=[];autosize=1;strokeColor=none;fillColor=none;" parent="dNxyNK7c78bLwvsdeMH5-21" vertex="1">
          <mxGeometry x="337" y="13.75" width="100" height="30" as="geometry" />
        </mxCell>
        <mxCell id="E1nOFEmdzeE2VjTm07h2-108" value="HumanizerMeshInstance" style="swimlane;horizontal=0;whiteSpace=wrap;html=1;startSize=20;" parent="dNxyNK7c78bLwvsdeMH5-19" vertex="1">
          <mxGeometry x="20" y="630" width="796" height="220" as="geometry" />
        </mxCell>
        <mxCell id="Voa3J6IPuXhRRujfUPY2-12" style="edgeStyle=orthogonalEdgeStyle;rounded=0;orthogonalLoop=1;jettySize=auto;html=1;" edge="1" parent="E1nOFEmdzeE2VjTm07h2-108" source="E1nOFEmdzeE2VjTm07h2-109">
          <mxGeometry relative="1" as="geometry">
            <mxPoint x="558" y="105" as="targetPoint" />
          </mxGeometry>
        </mxCell>
        <mxCell id="E1nOFEmdzeE2VjTm07h2-109" value="HumanizerMaterial Resource" style="swimlane;whiteSpace=wrap;html=1;" parent="E1nOFEmdzeE2VjTm07h2-108" vertex="1">
          <mxGeometry x="290" y="30" width="240" height="150" as="geometry" />
        </mxCell>
        <mxCell id="E1nOFEmdzeE2VjTm07h2-110" value="&lt;div&gt;Kept as a separate resource for cases&lt;/div&gt;&lt;div&gt;where serialization is desired.&amp;nbsp;&lt;/div&gt;&lt;div&gt;&lt;br&gt;&lt;/div&gt;&lt;div&gt;Wraps&amp;nbsp; A&lt;span style=&quot;background-color: initial;&quot;&gt;rray[HumanizerOverlay]&lt;/span&gt;&lt;/div&gt;&lt;div&gt;&lt;span style=&quot;background-color: initial;&quot;&gt;&lt;br&gt;&lt;/span&gt;&lt;/div&gt;&lt;div&gt;&lt;span style=&quot;background-color: initial;&quot;&gt;Some utility functions and signals&lt;/span&gt;&lt;/div&gt;" style="text;html=1;align=left;verticalAlign=middle;resizable=0;points=[];autosize=1;strokeColor=none;fillColor=none;" parent="E1nOFEmdzeE2VjTm07h2-109" vertex="1">
          <mxGeometry x="6" y="35" width="230" height="100" as="geometry" />
        </mxCell>
        <mxCell id="E1nOFEmdzeE2VjTm07h2-121" style="edgeStyle=orthogonalEdgeStyle;rounded=0;orthogonalLoop=1;jettySize=auto;html=1;entryX=0;entryY=0.5;entryDx=0;entryDy=0;" parent="E1nOFEmdzeE2VjTm07h2-108" source="E1nOFEmdzeE2VjTm07h2-111" target="E1nOFEmdzeE2VjTm07h2-109" edge="1">
          <mxGeometry relative="1" as="geometry" />
        </mxCell>
        <mxCell id="E1nOFEmdzeE2VjTm07h2-111" value="HumanizerOverlay Resource" style="swimlane;whiteSpace=wrap;html=1;" parent="E1nOFEmdzeE2VjTm07h2-108" vertex="1">
          <mxGeometry x="55" y="20" width="195" height="170" as="geometry" />
        </mxCell>
        <mxCell id="E1nOFEmdzeE2VjTm07h2-112" value="Texture Overlay&lt;div&gt;&lt;ul&gt;&lt;li&gt;Albedo texture path&lt;/li&gt;&lt;li&gt;Albedo color multiplier&lt;/li&gt;&lt;li&gt;Normal texture path&lt;/li&gt;&lt;li&gt;...&lt;/li&gt;&lt;/ul&gt;&lt;/div&gt;" style="text;html=1;align=left;verticalAlign=middle;resizable=0;points=[];autosize=1;strokeColor=none;fillColor=none;" parent="E1nOFEmdzeE2VjTm07h2-111" vertex="1">
          <mxGeometry x="5" y="35" width="180" height="110" as="geometry" />
        </mxCell>
        <mxCell id="E1nOFEmdzeE2VjTm07h2-114" value="HumanizerMeshInstance" style="swimlane;whiteSpace=wrap;html=1;" parent="E1nOFEmdzeE2VjTm07h2-108" vertex="1">
          <mxGeometry x="560" y="30" width="220" height="125" as="geometry" />
        </mxCell>
        <mxCell id="E1nOFEmdzeE2VjTm07h2-115" value="Node script for wrapping humanizer&amp;nbsp;&lt;div&gt;material resource instance.&amp;nbsp; Allows&amp;nbsp;&lt;/div&gt;&lt;div&gt;editing overlays&amp;nbsp;&lt;span style=&quot;background-color: initial;&quot;&gt;directly in node&#39;s&lt;/span&gt;&lt;/div&gt;&lt;div&gt;&lt;span style=&quot;background-color: initial;&quot;&gt;editor&amp;nbsp;&lt;/span&gt;&lt;span style=&quot;background-color: initial;&quot;&gt;inspector.&lt;/span&gt;&lt;/div&gt;" style="text;html=1;align=left;verticalAlign=middle;resizable=0;points=[];autosize=1;strokeColor=none;fillColor=none;" parent="E1nOFEmdzeE2VjTm07h2-114" vertex="1">
          <mxGeometry x="16" y="30" width="220" height="70" as="geometry" />
        </mxCell>
        <mxCell id="E1nOFEmdzeE2VjTm07h2-123" value="HumanizerNode" style="swimlane;horizontal=0;whiteSpace=wrap;html=1;startSize=20;" parent="dNxyNK7c78bLwvsdeMH5-19" vertex="1">
          <mxGeometry x="20" y="850" width="796" height="280" as="geometry" />
        </mxCell>
        <mxCell id="E1nOFEmdzeE2VjTm07h2-124" value="HumanizerNode" style="swimlane;whiteSpace=wrap;html=1;" parent="E1nOFEmdzeE2VjTm07h2-123" vertex="1">
          <mxGeometry x="411" y="27.5" width="220" height="245" as="geometry" />
        </mxCell>
        <mxCell id="E1nOFEmdzeE2VjTm07h2-125" value="&lt;ul&gt;&lt;li&gt;HumanConfig&lt;/li&gt;&lt;li&gt;Reset Human to base mesh&lt;/li&gt;&lt;li&gt;Set skin textures&lt;/li&gt;&lt;li&gt;Apply clothes&amp;nbsp;&lt;/li&gt;&lt;li&gt;Apply body parts&lt;/li&gt;&lt;li&gt;Set shapekeys&lt;/li&gt;&lt;li&gt;Change rig&lt;/li&gt;&lt;li&gt;Bake human to single mesh&lt;/li&gt;&lt;li&gt;Serialize/De-serialize&lt;/li&gt;&lt;li&gt;TODO : Generate texture&amp;nbsp;&lt;br&gt;atlas and reduce number of&lt;br&gt;mesh surfaces (and therefore&lt;br&gt;draw calls) as much as&amp;nbsp;&lt;br&gt;possible&lt;/li&gt;&lt;/ul&gt;" style="text;html=1;align=left;verticalAlign=middle;resizable=0;points=[];autosize=1;strokeColor=none;fillColor=none;" parent="E1nOFEmdzeE2VjTm07h2-124" vertex="1">
          <mxGeometry y="12.5" width="220" height="240" as="geometry" />
        </mxCell>
        <mxCell id="Voa3J6IPuXhRRujfUPY2-7" value="HumanConfig Resource" style="swimlane;whiteSpace=wrap;html=1;" vertex="1" parent="E1nOFEmdzeE2VjTm07h2-123">
          <mxGeometry x="130" y="47.5" width="223" height="182.5" as="geometry" />
        </mxCell>
        <mxCell id="Voa3J6IPuXhRRujfUPY2-10" value="&lt;ul&gt;&lt;li&gt;Equipped body parts&lt;/li&gt;&lt;li&gt;Equipped clothes&lt;/li&gt;&lt;li&gt;BodyPart materials&lt;/li&gt;&lt;li&gt;Clothes materials&lt;/li&gt;&lt;li&gt;Shapekey settings&lt;/li&gt;&lt;li&gt;Rig&lt;/li&gt;&lt;/ul&gt;&lt;span style=&quot;background-color: initial;&quot;&gt;Find exported baked human&amp;nbsp;&lt;/span&gt;&lt;div&gt;&lt;span style=&quot;background-color: initial;&quot;&gt;by resource_name&lt;/span&gt;&lt;br&gt;&lt;/div&gt;" style="text;html=1;align=left;verticalAlign=middle;resizable=0;points=[];autosize=1;strokeColor=none;fillColor=none;" vertex="1" parent="Voa3J6IPuXhRRujfUPY2-7">
          <mxGeometry x="21.5" y="22.5" width="180" height="150" as="geometry" />
        </mxCell>
        <mxCell id="Voa3J6IPuXhRRujfUPY2-13" style="edgeStyle=orthogonalEdgeStyle;rounded=0;orthogonalLoop=1;jettySize=auto;html=1;entryX=-0.015;entryY=0.394;entryDx=0;entryDy=0;entryPerimeter=0;" edge="1" parent="E1nOFEmdzeE2VjTm07h2-123" source="Voa3J6IPuXhRRujfUPY2-7" target="E1nOFEmdzeE2VjTm07h2-125">
          <mxGeometry relative="1" as="geometry">
            <Array as="points">
              <mxPoint x="378" y="129" />
              <mxPoint x="378" y="129" />
            </Array>
          </mxGeometry>
        </mxCell>
      </root>
    </mxGraphModel>
  </diagram>
</mxfile>
